<?xml version="1.0" ?><svg height="512pt" viewBox="0 -26 512 512" width="512pt" xmlns="http://www.w3.org/2000/svg"><g fill-rule="evenodd"><path d="m436.003906 410.003906h-241.003906c-11.003906 0-20 8.996094-20 20v19.996094h281.003906v-19.996094c0-11.003906-9.003906-20-20-20zm0 0" fill="#96c8eb"/><path d="m294.003906 370c-6.433594 0-12.773437-.46875-19-1.339844-6.230468.871094-12.574218 1.339844-19 1.339844-.671875 0-1.335937-.027344-2-.039062v40.042968h41.996094v-40.042968c-.667969.011718-1.328125.039062-1.996094.039062zm0 0" fill="#986e62"/><path d="m266 197.96875c-3.273438.480469-6.613281.734375-9.996094.734375-.003906 0-.003906 0-.003906 0v40.003906h20v-40.003906c-3.386719 0-6.726562-.253906-10-.734375zm0 0" fill="#986e62"/><path d="m277.011719 364.03125c3.121093.957031 6.289062 1.796875 9.492187 2.53125 3.207032-.734375 6.375-1.574219 9.496094-2.53125 44.164062-13.523438 79.582031-48.9375 92.011719-95.324219h-203.011719c12.429688 46.386719 47.847656 81.800781 92.011719 95.324219zm0 0" fill="#ffdaae"/><path d="m286.507812 191.515625c17.085938-8.535156 30.304688-24.078125 35.496094-43.460937h-71c5.191406 19.378906 18.414063 34.925781 35.503906 43.460937zm0 0" fill="#ffdaae"/><path d="m381.003906 238.703125h-177.003906c-8.25 0-15 6.75-15 15v15.003906h207v-15.003906c0-8.25-6.746094-15-14.996094-15zm0 0" fill="#96c8eb"/><path d="m321 118.054688h-57c-8.25 0-15 6.75-15 15v15h87.003906v-15c0-8.25-6.75-15-15.003906-15zm0 0" fill="#96c8eb"/></g><path d="m256.003906 20.234375c5.519532 0 10-4.476563 10-10v-.234375c0-5.523438-4.480468-10-10-10-5.523437 0-10.003906 4.476562-10.003906 10v.234375c0 5.523437 4.480469 10 10.003906 10zm0 0" fill="#000001"/><path d="m141 118.054688c0-5.511719-4.492188-10.003907-10-10.003907s-10.003906 4.492188-10.003906 10.003907c0 5.507812 4.496094 10 10.003906 10s10-4.492188 10-10zm0 0" fill="#000001"/><path d="m381.003906 108.050781c-5.511718 0-10 4.492188-10 10.003907 0 5.507812 4.488282 10 10 10 5.507813 0 10-4.492188 10-10 0-5.511719-4.492187-10.003907-10-10.003907zm0 0" fill="#000001"/><path d="m10.234375 440h-.234375c-5.523438 0-10 4.480469-10 10 0 5.523438 4.476562 10 10 10h.234375c5.523437 0 10-4.476562 10-10 0-5.519531-4.476563-10-10-10zm0 0" fill="#000001"/><path d="m502 440h-.234375c-5.523437 0-10 4.480469-10 10 0 5.523438 4.476563 10 10 10h.234375c5.519531 0 10-4.476562 10-10 0-5.519531-4.480469-10-10-10zm0 0" fill="#000001"/><path d="m473.035156 440h-7.03125v-9.996094c0-16.542968-13.457031-30-30-30h-130.003906v-28.816406c41.71875-15.179688 75.289062-48.886719 89.46875-92.480469h.53125c5.523438 0 10-4.480469 10-10v-15.003906c0-13.785156-11.214844-25-24.996094-25h-95.003906v-26.007813c19.652344-8.175781 35.527344-24.171874 43.261719-44.640624h6.742187c5.523438 0 10-4.476563 10-10v-15c0-13.785157-11.214844-25-25.003906-25h-14.996094v-26.585938c0-17.921875 14.578125-32.5 32.5-32.5s32.5 14.578125 32.5 32.5v7.660156c0 5.523438 4.476563 10 10 10 5.519532 0 10-4.476562 10-10v-7.660156c0-28.949219-23.550781-52.5-52.503906-52.5-28.945312 0-52.496094 23.550781-52.496094 52.5v26.585938h-20v-69.085938c0-5.523438-4.480468-10-10-10-5.523437 0-10.003906 4.476562-10.003906 10v69.085938h-20.003906v-26.585938c0-28.949219-23.550782-52.5-52.5-52.5-28.945313 0-52.496094 23.550781-52.496094 52.5v7.660156c0 5.523438 4.476562 10 10 10 5.519531 0 10-4.476562 10-10v-7.660156c0-17.921875 14.578125-32.5 32.5-32.5 17.917969 0 32.496094 14.578125 32.496094 32.5v26.585938h-15c-13.78125 0-24.996094 11.214843-24.996094 25v15c0 5.523437 4.476562 10 10 10h6.738281c7.734375 20.46875 23.613281 36.46875 43.261719 44.640624v26.011719h-95c-13.785156 0-25 11.210938-25 24.996094v15.003906c0 5.519531 4.476562 10 10 10h.535156c14.179688 43.59375 47.75 77.300781 89.464844 92.480469v28.816406h-130c-16.542969 0-30 13.457032-30 30v10h-7.035156c-5.519532 0-10 4.476563-10 10 0 5.523438 4.480468 10 10 10h434.070312c5.523438 0 10-4.476562 10-10 0-5.523437-4.476562-10.003906-10-10.003906zm-287.035156-306.945312c0-2.710938 2.289062-5 4.996094-5h130.003906c2.710938 0 5.003906 2.289062 5.003906 5v5h-140.003906zm18.667969 25h102.660156c-10.011719 18.535156-29.578125 30.648437-51.324219 30.648437-21.75 0-41.316406-12.113281-51.335937-30.648437zm41.332031 50.003906c3.285156.421875 6.621094.644531 10.003906.644531 3.375 0 6.714844-.222656 9.996094-.644531v20.644531h-20zm-120 45.644531c0-2.710937 2.289062-5 5-5h250.003906c2.707032 0 4.996094 2.289063 4.996094 5v5h-260zm11.765625 25.003906h236.46875c-18.597656 48.453125-65.464844 81.292969-118.230469 81.292969-52.773437 0-99.640625-32.839844-118.238281-81.292969zm88.234375 98.1875c9.730469 2.035157 19.769531 3.105469 30.003906 3.105469 10.226563 0 20.269532-1.066406 29.996094-3.105469v23.109375h-60zm-160 53.109375c0-5.515625 4.484375-10 10-10h360.003906c5.511719 0 10 4.484375 10 10v9.996094h-380.003906zm0 0" fill="#000001"/></svg>